<mxfile host="app.diagrams.net" modified="2021-08-12T07:21:38.818Z" agent="5.0 (X11; Linux x86_64) AppleWebKit/537.36 (KHTML, like Gecko) Chrome/92.0.4515.131 Safari/537.36" etag="LjFxiSBiDdO0aEeSl-7C" version="14.9.6" type="github">
  <diagram id="9V9uFCQP57_ZDp0LaVwa" name="Page-1">
    <mxGraphModel dx="1626" dy="856" grid="1" gridSize="10" guides="1" tooltips="1" connect="1" arrows="1" fold="1" page="1" pageScale="1" pageWidth="827" pageHeight="1169" background="#114B5F" math="0" shadow="0">
      <root>
        <mxCell id="0" />
        <mxCell id="1" parent="0" />
        <mxCell id="cQAIVyy3OW15eO10RW-g-20" value="" style="edgeStyle=orthogonalEdgeStyle;curved=0;rounded=1;sketch=0;orthogonalLoop=1;jettySize=auto;html=1;fontColor=#E4FDE1;strokeColor=#028090;fillColor=#F45B69;" edge="1" parent="1" source="cQAIVyy3OW15eO10RW-g-1" target="cQAIVyy3OW15eO10RW-g-2">
          <mxGeometry relative="1" as="geometry" />
        </mxCell>
        <mxCell id="cQAIVyy3OW15eO10RW-g-1" value="&lt;font style=&quot;font-size: 18px&quot;&gt;上层软件调用&lt;/font&gt;" style="rounded=1;whiteSpace=wrap;html=1;fillColor=#F45B69;strokeColor=#028090;fontColor=#E4FDE1;" vertex="1" parent="1">
          <mxGeometry x="120" y="250" width="120" height="60" as="geometry" />
        </mxCell>
        <mxCell id="cQAIVyy3OW15eO10RW-g-21" value="" style="edgeStyle=orthogonalEdgeStyle;curved=0;rounded=1;sketch=0;orthogonalLoop=1;jettySize=auto;html=1;fontColor=#E4FDE1;strokeColor=#028090;fillColor=#F45B69;" edge="1" parent="1" source="cQAIVyy3OW15eO10RW-g-2" target="cQAIVyy3OW15eO10RW-g-9">
          <mxGeometry relative="1" as="geometry" />
        </mxCell>
        <mxCell id="cQAIVyy3OW15eO10RW-g-2" value="&lt;span style=&quot;font-size: 18px&quot;&gt;dbus:udisks2权限操作接口&lt;/span&gt;" style="whiteSpace=wrap;html=1;rounded=1;fillColor=#F45B69;strokeColor=#028090;fontColor=#E4FDE1;" vertex="1" parent="1">
          <mxGeometry x="120" y="340" width="120" height="60" as="geometry" />
        </mxCell>
        <mxCell id="cQAIVyy3OW15eO10RW-g-12" value="" style="edgeStyle=orthogonalEdgeStyle;rounded=0;orthogonalLoop=1;jettySize=auto;html=1;strokeColor=#028090;fontColor=#E4FDE1;labelBackgroundColor=#114B5F;" edge="1" parent="1" source="cQAIVyy3OW15eO10RW-g-9" target="cQAIVyy3OW15eO10RW-g-11">
          <mxGeometry relative="1" as="geometry" />
        </mxCell>
        <mxCell id="cQAIVyy3OW15eO10RW-g-9" value="&lt;span style=&quot;font-size: 18px&quot;&gt;通过key查找hash表&lt;/span&gt;" style="whiteSpace=wrap;html=1;rounded=1;fillColor=#F45B69;strokeColor=#028090;fontColor=#E4FDE1;" vertex="1" parent="1">
          <mxGeometry x="120" y="430" width="120" height="60" as="geometry" />
        </mxCell>
        <mxCell id="cQAIVyy3OW15eO10RW-g-14" value="" style="edgeStyle=orthogonalEdgeStyle;rounded=0;orthogonalLoop=1;jettySize=auto;html=1;strokeColor=#028090;fontColor=#E4FDE1;labelBackgroundColor=#114B5F;" edge="1" parent="1" source="cQAIVyy3OW15eO10RW-g-11" target="cQAIVyy3OW15eO10RW-g-13">
          <mxGeometry relative="1" as="geometry" />
        </mxCell>
        <mxCell id="cQAIVyy3OW15eO10RW-g-16" value="" style="edgeStyle=orthogonalEdgeStyle;rounded=0;orthogonalLoop=1;jettySize=auto;html=1;strokeColor=#028090;fontColor=#E4FDE1;labelBackgroundColor=#114B5F;" edge="1" parent="1" source="cQAIVyy3OW15eO10RW-g-11" target="cQAIVyy3OW15eO10RW-g-15">
          <mxGeometry relative="1" as="geometry" />
        </mxCell>
        <mxCell id="cQAIVyy3OW15eO10RW-g-11" value="&lt;font style=&quot;font-size: 18px&quot;&gt;key是否存在&lt;/font&gt;" style="rhombus;whiteSpace=wrap;html=1;rounded=1;fillColor=#F45B69;strokeColor=#028090;fontColor=#E4FDE1;" vertex="1" parent="1">
          <mxGeometry x="117.5" y="520" width="125" height="100" as="geometry" />
        </mxCell>
        <mxCell id="cQAIVyy3OW15eO10RW-g-13" value="&lt;font style=&quot;font-size: 18px&quot;&gt;返回对应权限&lt;/font&gt;" style="whiteSpace=wrap;html=1;rounded=1;fillColor=#F45B69;strokeColor=#028090;fontColor=#E4FDE1;" vertex="1" parent="1">
          <mxGeometry x="120" y="670" width="120" height="60" as="geometry" />
        </mxCell>
        <mxCell id="cQAIVyy3OW15eO10RW-g-15" value="&lt;font style=&quot;font-size: 18px&quot;&gt;返回读写权限&lt;/font&gt;" style="whiteSpace=wrap;html=1;rounded=1;fillColor=#F45B69;strokeColor=#028090;fontColor=#E4FDE1;" vertex="1" parent="1">
          <mxGeometry x="270" y="670" width="120" height="60" as="geometry" />
        </mxCell>
        <mxCell id="cQAIVyy3OW15eO10RW-g-17" value="&lt;font style=&quot;font-size: 18px&quot;&gt;是&lt;/font&gt;" style="rounded=0;whiteSpace=wrap;html=1;sketch=0;fontColor=#E4FDE1;strokeColor=#028090;fillColor=#F45B69;" vertex="1" parent="1">
          <mxGeometry x="192.5" y="620" width="50" height="30" as="geometry" />
        </mxCell>
        <mxCell id="cQAIVyy3OW15eO10RW-g-18" value="&lt;span style=&quot;font-size: 18px&quot;&gt;否&lt;/span&gt;" style="rounded=0;whiteSpace=wrap;html=1;sketch=0;fontColor=#E4FDE1;strokeColor=#028090;fillColor=#F45B69;" vertex="1" parent="1">
          <mxGeometry x="240" y="530" width="50" height="30" as="geometry" />
        </mxCell>
      </root>
    </mxGraphModel>
  </diagram>
</mxfile>
